<svg width="456" height="486" viewBox="0 0 456 486" fill="none" xmlns="http://www.w3.org/2000/svg">
<path d="M45.1777 117.308L187.282 199.281M45.1777 117.308L49.5502 161.574L67.5865 171.41V152.283L109.398 176.875M45.1777 117.308L104.752 90.5306M187.282 199.281V267.592L169.792 258.302V212.397L109.398 176.875M187.282 199.281L206.411 186.712M104.752 90.5306L123.881 99.8209M104.752 90.5306V70.3107M123.881 99.8209L86.1693 117.308L126.881 140.807M123.881 99.8209L125.381 120.314M206.411 186.712V258.302M206.411 186.712L169.792 165.575M206.411 258.302L169.792 280.161M206.411 258.302V144.633M2 93.263L14.5707 181.794L33.9734 193.816M2 93.263L23.8622 105.832M2 93.263L187.282 17.8481L206.411 26.4464M53.3761 205.839L56.1088 226.605L59.9347 229.338M53.3761 205.839L33.9734 193.816M53.3761 205.839L37.526 212.397M113.497 267.592V242.454M113.497 267.592L129.894 254.476V233.71M113.497 267.592L95.1328 254.476M113.497 267.592L63.7606 293.823M113.497 242.454L129.894 233.71M113.497 242.454L73.5985 216.769M129.894 233.71L89.9952 208.571L73.5985 216.769M129.894 233.71L133.173 300.381L97.1004 276.882L98.485 297.649M23.8622 105.832L30.9674 171.41L70.8658 196.549M23.8622 105.832L104.752 70.3107M70.8658 196.549L73.5985 216.769M70.8658 196.549L89.9952 186.712M89.9952 186.712L147.383 223.327L152.302 311.857L191.108 339.728M89.9952 186.712L109.398 176.875M191.108 339.728V362.68M191.108 339.728L209.69 329.345M191.108 362.68L171.705 349.414M191.108 362.68L209.69 349.414M191.108 362.68L174.164 373.063M152.302 336.148L116.776 311.857L120.056 353.39L136.179 344.769M152.302 336.148L136.179 344.769M152.302 336.148L171.705 349.414M86.1693 353.39L101.473 342.46L98.485 297.649M86.1693 353.39L82.3434 308.032M86.1693 353.39L139.732 392.19L136.179 344.769M82.3434 308.032L98.485 297.649M82.3434 308.032L63.7606 293.823M33.9734 193.816L18.9432 202.014M18.9432 202.014L37.526 212.397M18.9432 202.014L37.526 336.148L53.3761 347.379L43.5381 260.488L79.6106 283.986V263.22M37.526 212.397L40.8053 238.628M79.6106 263.22L95.1328 254.476M79.6106 263.22L40.8053 238.628M95.1328 254.476L59.9347 229.338M63.7606 293.823L70.8658 362.68L228.273 484M228.273 484V388.365M228.273 484L388.96 359.401V316.776M228.273 388.365L265.985 365.413V339.728M228.273 388.365L209.69 375.249M265.985 339.728L284.022 327.159M265.985 339.728L247.338 328.525M284.022 327.159V369.785M284.022 327.159L268.718 315.063M246.856 399.841L284.022 375.249V369.785M246.856 399.841V422.247M246.856 399.841L263.253 408.039M263.253 432.63L246.856 444.653V422.247M263.253 432.63L246.856 422.247M263.253 432.63V408.039M136.179 344.769L155.582 359.401M155.582 359.401L171.705 349.414M155.582 359.401L158.861 404.213M158.861 404.213L209.69 447.385V422.247M158.861 404.213L174.164 396.016M209.69 375.249L228.273 364.32M209.69 375.249V398.748M249.589 212.397L228.273 223.327M249.589 212.397L228.273 199.281M249.589 212.397L248.657 260.488M228.273 223.327V364.32M228.273 223.327L209.69 208.571M228.273 364.32L246.856 353.39L247.338 328.525M228.273 364.32L209.69 349.414M209.69 349.414V329.345M174.164 373.063V396.016M174.164 373.063L209.69 398.748M174.164 396.016L209.69 422.247M209.69 422.247V398.748M169.792 280.161V303.66L209.69 329.345M169.792 280.161L209.69 303.66V208.571M209.69 208.571L228.273 199.281M228.273 199.281L268.718 223.327M126.881 140.807L125.381 120.314M126.881 140.807L146.764 152.283M125.381 120.314L147.383 132.61M125.381 120.314L146.764 110.58M147.383 132.61L146.764 152.283M147.383 132.61L187.282 112.39M146.764 152.283L169.792 165.575M146.764 152.283L187.282 132.61M165.966 63.2063L206.411 83.4263L165.966 101.838M165.966 63.2063L187.282 53.3696M165.966 63.2063V101.838M187.282 53.3696L228.273 73.1437M187.282 53.3696V35.8821M249.589 83.4263L209.69 99.8209M249.589 83.4263L246.856 82.108M249.589 83.4263L248.222 101.87M209.69 99.8209L246.856 120.314L248.222 101.87M209.69 99.8209L268.718 132.61M187.282 112.39L268.718 155.016L331.025 120.314L309.71 112.39M187.282 112.39V132.61M309.71 112.39L268.718 132.61M309.71 112.39V90.5306M268.718 132.61V112.39M104.752 70.3107L146.764 90.5306M146.764 90.5306V110.58M146.764 90.5306L165.966 83.4263L125.381 63.2063L187.282 35.8821M146.764 110.58L165.966 101.838M246.856 44.6259L228.273 53.3696M246.856 44.6259V82.108M246.856 44.6259L206.411 26.4464M228.273 53.3696L187.282 35.8821M228.273 53.3696V73.1437M228.273 73.1437L246.856 82.108M206.411 26.4464V10.7438M206.411 10.7438L289.487 44.6259L249.589 63.2063L268.718 73.1437M206.411 10.7438L228.273 2L350.701 53.3696M268.718 73.1437L309.71 53.3696M268.718 73.1437V92.2947M309.71 53.3696L331.025 63.2063M309.71 53.3696V73.1437M331.025 63.2063L350.701 53.3696M331.025 63.2063V82.108M350.701 53.3696L351.521 70.7445M248.222 101.87L268.718 112.39M248.222 101.87L268.718 92.2947M309.71 73.1437L331.025 82.108M309.71 73.1437L268.718 92.2947M331.025 82.108L351.521 70.7445M454 93.263L372.017 59.381L351.521 70.7445M454 93.263L434.324 105.832M454 93.263L434.324 226.605L416.834 236.989M434.324 105.832L370.924 79.0544M434.324 105.832L423.393 193.816M370.924 79.0544L331.025 101.838M370.924 79.0544V99.8209M331.025 101.838L309.71 90.5306M331.025 101.838V140.807M309.71 90.5306L268.718 112.39M169.792 165.575L206.411 144.633M187.282 132.61L206.411 144.633M350.701 112.39L370.924 120.314L348.705 132.61M350.701 112.39L348.705 132.61M350.701 112.39L370.924 99.8209M348.705 132.61L268.718 176.875L228.273 155.016L209.69 165.575L268.718 199.281L409.729 115.946M370.924 99.8209L409.729 115.946M409.729 115.946L413.008 117.308L406.45 181.794M268.718 223.327L309.71 199.281L305.884 242.454M268.718 223.327L288.894 233.71M305.884 242.454L288.894 233.71M305.884 242.454L327.746 229.884L331.025 189.991M248.657 260.488L288.894 233.71M248.657 260.488L248.275 280.161M288.894 233.71L289.487 254.476L248.275 280.161M248.275 280.161L248.222 282.894M331.025 189.991L348.705 199.281M331.025 189.991L350.701 178.113M348.705 199.281L345.782 242.454M348.705 199.281L366.551 186.712M345.782 242.454L327.746 233.71M345.782 242.454L265.985 293.823M265.985 293.823L248.222 282.894M265.985 293.823V316.776M248.222 282.894L247.82 303.66M247.82 303.66L265.985 316.776M247.82 303.66L247.338 328.525M265.985 316.776L268.718 315.063M302.605 381.261V293.823L268.718 315.063M302.605 381.261L284.022 369.785M302.605 381.261L356.167 342.46M406.45 181.794L385.134 193.816L388.96 155.016L350.701 178.113M406.45 181.794L423.393 193.816M366.551 186.712L350.701 178.113M366.551 186.712L365.26 208.298M324.467 276.882L362.725 250.651L363.968 229.884M324.467 276.882V300.381M324.467 276.882L342.503 287.812M356.167 322.24L324.467 344.769V300.381M356.167 322.24V342.46M356.167 322.24L342.503 312.818M356.167 322.24L372.017 332.624L388.96 316.776M324.467 300.381L342.503 312.818M356.167 342.46L372.017 353.39L280.196 422.247V396.016M342.503 287.812V312.818M342.503 287.812L397.705 250.651M342.503 312.818L362.725 298.361M397.705 250.651V272.51L429.405 246.279M397.705 250.651L380.836 240.268M363.968 229.884L365.26 208.298M363.968 229.884L380.836 240.268M406.45 347.379L409.729 283.986L377.482 308.032V287.812L362.725 298.361M406.45 347.379L388.96 339.728M406.45 347.379L420.114 332.624L429.405 246.279M388.96 316.776L362.725 298.361M263.253 408.039L280.196 396.016M280.196 396.016L268.718 388.365M429.405 246.279L398.835 229.338M365.26 208.298L382.401 218.408M382.401 218.408L380.836 240.268M382.401 218.408L423.393 193.816M380.836 240.268L398.835 229.338M416.834 236.989V218.408L398.835 229.338M416.834 236.989L398.835 229.338M40.8053 238.628L59.9347 229.338" stroke="white" stroke-opacity="0.5" stroke-width="2"/>
</svg>
