<svg width="100" height="63" viewBox="0 0 100 63" fill="none" xmlns="http://www.w3.org/2000/svg">
<path d="M13.1971 63C17.9425 63 21.1985 61.2616 24.1081 57.6457L30.3776 50.0315C31.2781 48.9536 32.3173 48.4321 33.3564 48.4321H66.6436C67.6827 48.4321 68.7219 48.9536 69.6224 50.0315L75.8919 57.6457C78.8015 61.2616 82.0575 63 86.8029 63C94.735 63 100 57.7152 100 49.5795C100 46.1026 99.2033 42.1043 97.8524 37.6192C95.7395 30.4917 92.0333 20.7914 88.5002 13.2815C85.5213 7.02318 83.9972 4.17219 76.654 2.50331C70.142 1.00828 61.1015 0 50.0173 0C38.9331 0 29.858 1.00828 23.346 2.50331C16.0028 4.17219 14.4787 7.02318 11.4998 13.2815C7.96675 20.7914 4.26048 30.4917 2.14756 37.6192C0.796675 42.1043 0 46.1026 0 49.5795C0 57.7152 5.26498 63 13.1971 63ZM21.9605 24.5116C21.9605 22.7732 23.0343 21.6954 24.8355 21.6954H31.0703V15.6109C31.0703 13.8377 32.0748 12.7599 33.8067 12.7599C35.504 12.7599 36.5431 13.8377 36.5431 15.6109V21.6954H42.397C44.3367 21.6954 45.4797 22.7732 45.4797 24.5116C45.4797 26.3195 44.3367 27.4321 42.397 27.4321H36.5431V33.5166C36.5431 35.2897 35.504 36.4023 33.8067 36.4023C32.0748 36.4023 31.0703 35.2897 31.0703 33.5166V27.4321H24.8355C23.0343 27.4321 21.9605 26.3195 21.9605 24.5116ZM66.2279 19.0877C66.2279 16.2368 68.4101 14.0464 71.1812 14.0464C74.0215 14.0464 76.169 16.2368 76.169 19.0877C76.169 21.904 74.0215 24.0596 71.1812 24.0596C68.4101 24.0596 66.2279 21.904 66.2279 19.0877ZM56.0097 29.3791C56.0097 26.5281 58.2265 24.3377 60.9976 24.3377C63.8033 24.3377 65.9855 26.5281 65.9855 29.3791C65.9855 32.1954 63.8033 34.3858 60.9976 34.3858C58.2265 34.3858 56.0097 32.1954 56.0097 29.3791Z" fill="white"/>
</svg>
