<svg width="303" height="375" viewBox="0 0 303 375" fill="none" xmlns="http://www.w3.org/2000/svg">
<path d="M213.623 235.757L228.853 225.806L187.618 211.468L177.203 168.83L150.347 204.012L106.291 201.738L133.12 237.672L116.346 278.136L157.402 265.934L191.158 293.711L191.533 277.877M213.623 235.757C253.194 275.476 269.013 303.676 287.211 363.305M213.623 235.757L197.103 246.552M197.103 246.552L192.198 249.757L191.907 262.043M197.103 246.552C247.907 287.41 262.607 314.437 283.871 364.125M191.907 262.043C239.927 295.343 256.487 321.15 281.238 370.477M191.907 262.043L191.533 277.877M191.533 277.877C232.928 303.928 251.55 326.114 279.872 373.771M89.06 192.663L72.2849 178.721L51.7395 185.018L60.2429 164.506L46.9526 146.418L68.9512 147.432L82.4744 129.56L87.5449 151.088L108.098 158.211L89.715 170.435L89.06 192.663ZM280.929 225.743L264.036 212.086L243.74 217.78L251.838 198.245L238.336 180.669L260.198 182.012L273.326 165.094L278.724 185.832L299.253 193.012L281.205 204.429L280.929 225.743ZM218.989 158.841L202.529 145.03L182.235 151.431L190.738 130.919L177.739 112.952L199.424 113.836L212.861 95.9284L217.736 117.375L237.96 124.361L219.764 136.663L218.989 158.841ZM59.679 59.7705L39.1852 53.3156L22.8889 67V44.7951L4 33.1762L24.3704 25.6885L29.9259 4L42.642 21.9447L64 20.6537L51.9012 38.9857L59.679 59.7705ZM139.679 90.7705L119.185 84.3156L102.889 98V75.7951L84 64.1762L104.37 56.6885L109.926 35L122.642 52.9447L144 51.6537L131.901 69.9857L139.679 90.7705Z" stroke="#FFFCFC" stroke-opacity="0.5" stroke-width="3"/>
</svg>
