<svg width="313" height="411" viewBox="0 0 313 411" fill="none" xmlns="http://www.w3.org/2000/svg">
<path d="M207.586 410H312V323.633H207.586M207.586 410V323.633M207.586 410H1V364.335H104.069V410V278.465H126.476M207.586 323.633V278.465H192.798M126.476 278.465L139.023 169.762H113.032L123.339 152.886M126.476 278.465H130.957M97.3473 75.9502L104.069 96.7973L110.791 99.2791L124.439 96.7973M97.3473 75.9502H85.696L87.4885 63.0449H92.866V52.6214H89.281L83.9035 47.1614V30.7816H105.414V47.1614L100.932 52.6214H95.5548V63.0449H100.932L102.725 75.4539L100.932 75.6193M97.3473 75.9502L100.932 75.6193M100.932 75.6193L108.999 88.3592H115.72L140.816 73.4684C141.968 73.4684 142.992 73.4684 143.952 73.4684M192.798 278.465L180.699 169.762L175.769 99.2791L180.699 111.192V159.339H184.284L189.661 108.214L180.699 73.4684H171.736M192.798 278.465H188.317M188.317 278.465L161.878 169.762H156.5L130.957 278.465M188.317 278.465H130.957M152.467 73.4684H166.583M152.467 73.4684C152.467 70.6999 152.467 68.7587 152.467 66.5194M152.467 73.4684C149.069 73.4684 146.786 73.4684 143.952 73.4684M166.583 73.4684L166.527 68.2567M166.583 73.4684H171.736M152.467 56.5922V52.6214C157.114 50.6153 160.263 50.8924 166.359 52.6214L166.401 56.5922M152.467 56.5922H150.674V61.0595L152.467 63.0449M152.467 56.5922V63.0449M152.467 63.0449C152.467 64.347 152.467 65.4662 152.467 66.5194M166.401 56.5922H168.599V61.0595L166.471 63.0449M166.401 56.5922L166.471 63.0449M166.471 63.0449L166.527 68.2567M152.467 66.5194C147.655 68.5173 145.824 70.0558 143.952 73.4684M124.439 96.7973L140.816 93.8192L133.646 136.01L123.339 152.886M124.439 96.7973C116.497 107.312 110.285 112.012 97.3473 119.133C80.4394 128.221 68.6671 131.046 52.5346 136.01C36.402 140.973 30.4117 140.85 16.2363 143.951H7.7219C9.62086 150.39 10.6888 153.832 12.6513 156.857C15.551 162.831 17.8355 164.497 22.9582 164.799C29.7203 164.937 32.8625 164.372 36.402 161.324L43.1239 158.492M113.032 119.133C108.307 123.204 105.657 125.486 100.932 129.557C94.7832 134.974 88.9728 138.175 77.6297 143.951C66.3104 147.868 59.6202 150.345 43.1239 158.492M43.1239 158.492C46.799 158.822 45.8127 157.353 52.5346 159.339C59.2565 161.324 61.4971 162.813 66.4265 164.799C71.3559 166.784 72.8484 170.086 74.9409 169.762C81.2056 171.536 84.4711 171.871 89.281 169.762C96.1621 166.303 99.0802 164.117 100.932 159.339C107.225 155.39 109.696 154.532 113.032 154.375L123.339 152.886M166.527 68.2567C170.158 70.2613 171.812 71.3926 171.736 73.4684M50.5362 382.352L47.521 379.969L52.2592 376.632H59.1512L62.1664 379.969V384.259L59.1512 387.596L62.1664 390.932V395.699L59.1512 399.036H52.2592L47.521 397.129L50.5362 393.793L53.5515 395.699H56.9975L58.2897 392.839L56.9975 390.932L54.8437 389.502H52.2592V386.165H56.9975L58.2897 384.259V382.352L56.9975 379.969H53.5515L50.5362 382.352ZM266.341 383.782H244.804V379.969L257.295 364.238L258.588 358.041L257.295 355.181L254.711 353.274H251.696L249.973 355.181L248.25 356.611L244.804 353.274L249.973 348.984L254.711 347.554L260.311 348.984L263.326 353.274L264.618 358.041V362.808L260.311 370.435L254.711 378.062H266.341V383.782ZM143.147 356.611V365.191H171.577V356.611H162.531V311.802H156.5L146.162 316.569V321.336H153.916V356.611H143.147ZM74.0447 35.2488H66.4265V38.7233H74.0447V35.2488ZM66.4265 24.8252V28.7961H74.0447V24.8252H66.4265ZM115.72 24.8252V28.7961H123.339V24.8252H115.72ZM115.72 35.2488V39.2197H123.339V35.2488H115.72ZM74.9409 17.3799L68.6671 13.409L70.4597 9.43811L76.2853 13.409L74.9409 17.3799ZM82.111 11.4235L79.4222 5.46723L83.9035 3.97816L85.696 9.43811L82.111 11.4235ZM92.866 9.43811V1H97.3473V9.43811H92.866ZM102.725 11.4235L107.206 3.97816L110.791 7.45267L107.206 13.409L102.725 11.4235ZM110.791 17.3799L113.032 20.8544L120.202 17.3799L116.82 13.409L110.791 17.3799Z" stroke="white" stroke-opacity="0.5" stroke-width="2"/>
</svg>
